<svg width="192" height="7" viewBox="0 0 192 7" fill="none" xmlns="http://www.w3.org/2000/svg">
<path d="M45.783 6.99931C43.9943 7.01971 42.2324 6.57475 40.6761 5.71059C39.9643 5.2828 39.2792 4.8137 38.6238 4.30644C38.3191 4.07564 38.0051 3.84484 37.6418 3.6237C36.9354 3.04563 36.0437 2.72841 35.1231 2.72841C34.2019 2.72841 33.3108 3.04509 32.6039 3.62316C32.2899 3.8443 31.995 4.0751 31.6903 4.3059C31.1993 4.68109 30.7083 5.05626 30.1679 5.40247C28.468 6.44107 26.5056 6.99225 24.5019 6.99225C22.4983 6.99225 20.5355 6.44155 18.8354 5.40301C18.3049 5.05681 17.8534 4.69129 17.3327 4.3161C17.0089 4.06598 16.6746 3.81586 16.3507 3.5754C15.6613 3.05046 14.8135 2.76546 13.9399 2.76546C13.0669 2.76546 12.2185 3.05046 11.5292 3.5754C11.1559 3.82552 10.8123 4.09496 10.4589 4.36387C10.1054 4.63331 9.47684 5.10458 8.95622 5.45078C6.26486 7.05294 2.99438 7.42545 0 6.4706L0.775982 4.11436C3.07438 4.84486 5.58266 4.56039 7.64972 3.335C8.12102 3.03657 8.54353 2.70004 8.97537 2.37316C9.4072 2.04628 9.75135 1.77685 10.1635 1.49773C11.2809 0.685098 12.6367 0.246043 14.0286 0.246043C15.42 0.246043 16.7753 0.685098 17.8927 1.49773C18.2659 1.75751 18.6292 2.03662 18.9827 2.30553C19.3361 2.57497 19.8469 2.96894 20.3182 3.26737C21.6055 4.03975 23.0857 4.44821 24.5948 4.44821C26.1047 4.44821 27.5847 4.03975 28.872 3.26737C29.3532 2.95982 29.7856 2.62274 30.2174 2.30553C30.6492 1.98831 30.8657 1.80529 31.1995 1.56483C32.3404 0.694771 33.7455 0.223511 35.1912 0.223511C36.6374 0.223511 38.0419 0.695308 39.1834 1.56536C39.5271 1.80582 39.8515 2.05594 40.1655 2.29641C40.742 2.74781 41.3454 3.16485 41.9723 3.54649C44.092 4.68169 46.6272 4.79924 48.8466 3.8637C49.8292 3.37151 50.7603 2.78484 51.6256 2.11342L52.372 1.57453C53.5201 0.707688 54.9291 0.236961 56.379 0.236961C57.8285 0.236961 59.2375 0.707688 60.3856 1.57453L61.3677 2.27659C61.908 2.69042 62.4281 3.07473 62.9882 3.43058C64.1609 4.14875 65.5359 4.48582 66.9163 4.39296L67.0046 6.86462C65.1112 6.96553 63.2337 6.48461 61.6329 5.48946C60.9846 5.07564 60.3955 4.63336 59.8359 4.21041L58.9421 3.54699C58.222 2.99308 57.3331 2.69142 56.418 2.69142C55.5028 2.69142 54.614 2.99253 53.8944 3.54646L53.1678 4.06602C52.1715 4.83571 51.099 5.50603 49.9663 6.06651C48.6588 6.67572 47.2303 6.99447 45.783 6.99931Z" fill="#BDB0EC"/>
<path d="M108.281 6.99931C106.492 7.01971 104.73 6.57475 103.174 5.71059C102.462 5.2828 101.777 4.8137 101.122 4.30644C100.817 4.07564 100.503 3.84484 100.139 3.6237C99.4331 3.04563 98.5414 2.72841 97.6208 2.72841C96.6996 2.72841 95.8085 3.04509 95.1016 3.62316C94.7876 3.8443 94.4928 4.0751 94.1881 4.3059C93.697 4.68109 93.206 5.05626 92.6656 5.40247C90.9657 6.44107 89.0033 6.99225 86.9997 6.99225C84.996 6.99225 83.0332 6.44155 81.3331 5.40301C80.8027 5.05681 80.3511 4.69129 79.8305 4.3161C79.5066 4.06598 79.1723 3.81586 78.8484 3.5754C78.159 3.05046 77.3112 2.76546 76.4376 2.76546C75.5647 2.76546 74.7163 3.05046 74.0269 3.5754C73.6537 3.82552 73.3101 4.09496 72.9566 4.36387C72.6031 4.63331 71.9746 5.10458 71.4539 5.45078C68.7626 7.05294 65.5218 7.62822 62.4977 5.65363L63.0017 3.5754C65.5218 4.66634 68.0804 4.56039 70.1474 3.335C70.6187 3.03657 71.0413 2.70004 71.4731 2.37316C71.9049 2.04628 72.2491 1.77685 72.6612 1.49773C73.7786 0.685098 75.1344 0.246043 76.5264 0.246043C77.9178 0.246043 79.273 0.685098 80.3904 1.49773C80.7636 1.75751 81.1269 2.03662 81.4804 2.30553C81.8339 2.57497 82.3446 2.96894 82.8159 3.26737C84.1032 4.03975 85.5834 4.44821 87.0926 4.44821C88.6024 4.44821 90.0825 4.03975 91.3698 3.26737C91.8509 2.95982 92.2833 2.62274 92.7151 2.30553C93.147 1.98831 93.3634 1.80529 93.6972 1.56483C94.8381 0.694771 96.2432 0.223511 97.6889 0.223511C99.1352 0.223511 100.54 0.695308 101.681 1.56536C102.025 1.80582 102.349 2.05594 102.663 2.29641C103.24 2.74781 103.843 3.16485 104.47 3.54649C106.59 4.68169 109.125 4.79924 111.344 3.8637C112.327 3.37151 113.258 2.78484 114.123 2.11342L114.87 1.57453C116.018 0.707688 117.427 0.236961 118.877 0.236961C120.326 0.236961 121.735 0.707688 122.883 1.57453L123.865 2.27659C124.406 2.69042 124.926 3.07473 125.486 3.43058C126.659 4.14875 128.034 4.48582 129.414 4.39296L129.502 6.86462C127.609 6.96553 125.731 6.48461 124.131 5.48946C123.482 5.07564 122.893 4.63336 122.334 4.21041L121.44 3.54699C120.72 2.99308 119.831 2.69142 118.916 2.69142C118.001 2.69142 117.112 2.99253 116.392 3.54646L115.665 4.06602C114.669 4.83571 113.597 5.50603 112.464 6.06651C111.156 6.67572 109.728 6.99447 108.281 6.99931Z" fill="#BDB0EC"/>
<path d="M170.778 6.99931C168.99 7.01971 167.228 6.57475 165.672 5.71059C164.96 5.2828 164.275 4.8137 163.619 4.30644C163.315 4.07564 163.001 3.84484 162.637 3.6237C161.931 3.04563 161.039 2.72841 160.119 2.72841C159.197 2.72841 158.306 3.04509 157.599 3.62316C157.285 3.8443 156.99 4.0751 156.686 4.3059C156.195 4.68109 155.704 5.05626 155.163 5.40247C153.463 6.44107 151.501 6.99225 149.497 6.99225C147.494 6.99225 145.531 6.44155 143.831 5.40301C143.3 5.05681 142.849 4.69129 142.328 4.3161C142.004 4.06598 141.67 3.81586 141.346 3.5754C140.657 3.05046 139.809 2.76546 138.935 2.76546C138.062 2.76546 137.214 3.05046 136.525 3.5754C136.151 3.82552 135.808 4.09496 135.454 4.36387C135.101 4.63331 134.472 5.10458 133.952 5.45078C131.26 7.05294 128.02 7.62822 124.995 5.65363L125.499 3.5754C128.02 4.66634 130.578 4.56039 132.645 3.335C133.116 3.03657 133.539 2.70004 133.971 2.37316C134.403 2.04628 134.747 1.77685 135.159 1.49773C136.276 0.685098 137.632 0.246043 139.024 0.246043C140.415 0.246043 141.771 0.685098 142.888 1.49773C143.261 1.75751 143.625 2.03662 143.978 2.30553C144.332 2.57497 144.842 2.96894 145.314 3.26737C146.601 4.03975 148.081 4.44821 149.59 4.44821C151.1 4.44821 152.58 4.03975 153.867 3.26737C154.349 2.95982 154.781 2.62274 155.213 2.30553C155.645 1.98831 155.861 1.80529 156.195 1.56483C157.336 0.694771 158.741 0.223511 160.187 0.223511C161.633 0.223511 163.037 0.695308 164.179 1.56536C164.522 1.80582 164.847 2.05594 165.161 2.29641C165.737 2.74781 166.341 3.16485 166.968 3.54649C169.087 4.68169 171.623 4.79924 173.842 3.8637C174.825 3.37151 175.756 2.78484 176.621 2.11342L177.367 1.57453C178.516 0.707688 179.925 0.236961 181.374 0.236961C182.824 0.236961 184.233 0.707688 185.381 1.57453L186.363 2.27659C186.903 2.69042 187.424 3.07473 187.984 3.43058C189.156 4.14875 190.531 4.48582 191.912 4.39296L192 6.86462C190.107 6.96553 188.229 6.48461 186.628 5.48946C185.98 5.07564 185.391 4.63336 184.831 4.21041L183.938 3.54699C183.217 2.99308 182.329 2.69142 181.413 2.69142C180.498 2.69142 179.609 2.99253 178.89 3.54646L178.163 4.06602C177.167 4.83571 176.094 5.50603 174.962 6.06651C173.654 6.67572 172.226 6.99447 170.778 6.99931Z" fill="#BDB0EC"/>
</svg>
