<svg width="85" height="3" viewBox="0 0 85 3" fill="none" xmlns="http://www.w3.org/2000/svg">
<path d="M20.2685 2.9997C19.4766 3.00873 18.6966 2.81175 18.0077 2.42918C17.6925 2.23979 17.3892 2.03212 17.0991 1.80755C16.9642 1.70537 16.8252 1.60319 16.6643 1.50529C16.3516 1.24937 15.9568 1.10894 15.5493 1.10894C15.1415 1.10894 14.747 1.24914 14.434 1.50505C14.295 1.60295 14.1645 1.70513 14.0296 1.80731C13.8122 1.97341 13.5948 2.1395 13.3556 2.29277C12.603 2.75256 11.7342 2.99658 10.8472 2.99658C9.96018 2.99658 9.09122 2.75278 8.33859 2.29301C8.10375 2.13974 7.90384 1.97792 7.67335 1.81182C7.52997 1.70109 7.38198 1.59036 7.23859 1.48391C6.93339 1.25152 6.55807 1.12534 6.17132 1.12534C5.78484 1.12534 5.40925 1.25152 5.10405 1.48391C4.93883 1.59464 4.78672 1.71392 4.63023 1.83297C4.47375 1.95226 4.19548 2.16089 3.96499 2.31416C2.77351 3.02345 1.32564 3.18836 0 2.76564L0.343533 1.72251C1.36105 2.04591 2.47149 1.91997 3.3866 1.37748C3.59524 1.24536 3.78229 1.09638 3.97347 0.951667C4.16464 0.806957 4.317 0.687674 4.49945 0.564108C4.99413 0.204349 5.59435 0.00997542 6.21059 0.00997542C6.82658 0.00997542 7.42655 0.204349 7.92124 0.564108C8.08646 0.679115 8.24731 0.80268 8.40379 0.921726C8.56027 1.04101 8.78639 1.21542 8.99503 1.34754C9.56492 1.68948 10.2202 1.87031 10.8883 1.87031C11.5567 1.87031 12.212 1.68948 12.7819 1.34754C12.9949 1.21138 13.1863 1.06216 13.3775 0.921726C13.5687 0.781292 13.6645 0.700266 13.8123 0.593812C14.3174 0.208631 14.9394 0 15.5794 0C16.2197 0 16.8415 0.208869 17.3468 0.594049C17.499 0.700503 17.6426 0.811234 17.7816 0.917688C18.0368 1.11753 18.3039 1.30216 18.5815 1.47111C19.5199 1.97367 20.6422 2.02572 21.6248 1.61154C22.0598 1.39365 22.472 1.13392 22.8551 0.836679L23.1855 0.598107C23.6938 0.214349 24.3176 0.00595444 24.9595 0.00595444C25.6012 0.00595444 26.2249 0.214349 26.7332 0.598107L27.168 0.908915C27.4072 1.09212 27.6374 1.26226 27.8854 1.4198C28.4046 1.73774 29.0133 1.88696 29.6244 1.84585L29.6635 2.94008C28.8253 2.98475 27.9941 2.77184 27.2854 2.33128C26.9984 2.14808 26.7376 1.95227 26.4899 1.76503L26.0942 1.47133C25.7754 1.22611 25.3819 1.09256 24.9767 1.09256C24.5716 1.09256 24.1781 1.22587 23.8595 1.4711L23.5378 1.70111C23.0967 2.04186 22.622 2.33862 22.1205 2.58675C21.5416 2.85645 20.9092 2.99756 20.2685 2.9997Z" fill="#BDB0EC"/>
<path d="M47.9368 2.9997C47.1449 3.00873 46.3649 2.81175 45.6759 2.42918C45.3608 2.23979 45.0575 2.03212 44.7673 1.80755C44.6324 1.70537 44.4934 1.60319 44.3326 1.50529C44.0199 1.24937 43.6251 1.10894 43.2175 1.10894C42.8097 1.10894 42.4152 1.24914 42.1023 1.50505C41.9633 1.60295 41.8327 1.70513 41.6978 1.80731C41.4805 1.97341 41.2631 2.1395 41.0238 2.29277C40.2713 2.75256 39.4025 2.99658 38.5155 2.99658C37.6284 2.99658 36.7595 2.75278 36.0069 2.29301C35.772 2.13974 35.5721 1.97792 35.3416 1.81182C35.1982 1.70109 35.0502 1.59036 34.9069 1.48391C34.6016 1.25152 34.2263 1.12534 33.8396 1.12534C33.4531 1.12534 33.0775 1.25152 32.7723 1.48391C32.6071 1.59464 32.455 1.71392 32.2985 1.83297C32.142 1.95226 31.8637 2.16089 31.6333 2.31416C30.4418 3.02345 29.007 3.27813 27.6683 2.40396L27.8914 1.48391C29.007 1.96688 30.1398 1.91997 31.0549 1.37748C31.2635 1.24536 31.4506 1.09638 31.6417 0.951667C31.8329 0.806957 31.9853 0.687674 32.1677 0.564108C32.6624 0.204349 33.2626 0.00997542 33.8789 0.00997542C34.4948 0.00997542 35.0948 0.204349 35.5895 0.564108C35.7547 0.679115 35.9156 0.80268 36.0721 0.921726C36.2285 1.04101 36.4546 1.21542 36.6633 1.34754C37.2332 1.68948 37.8885 1.87031 38.5566 1.87031C39.225 1.87031 39.8802 1.68948 40.4502 1.34754C40.6632 1.21138 40.8546 1.06216 41.0458 0.921726C41.2369 0.781292 41.3328 0.700266 41.4805 0.593812C41.9856 0.208631 42.6077 0 43.2477 0C43.888 0 44.5097 0.208869 45.0151 0.594049C45.1672 0.700503 45.3108 0.811234 45.4499 0.917688C45.7051 1.11753 45.9722 1.30216 46.2497 1.47111C47.1881 1.97367 48.3105 2.02572 49.2931 1.61154C49.7281 1.39365 50.1403 1.13392 50.5234 0.836679L50.8538 0.598107C51.3621 0.214349 51.9858 0.00595444 52.6277 0.00595444C53.2694 0.00595444 53.8932 0.214349 54.4015 0.598107L54.8362 0.908915C55.0755 1.09212 55.3057 1.26226 55.5536 1.4198C56.0728 1.73774 56.6815 1.88696 57.2927 1.84585L57.3317 2.94008C56.4935 2.98475 55.6623 2.77184 54.9537 2.33128C54.6667 2.14808 54.4059 1.95227 54.1581 1.76503L53.7624 1.47133C53.4436 1.22611 53.0501 1.09256 52.645 1.09256C52.2398 1.09256 51.8463 1.22587 51.5278 1.4711L51.2061 1.70111C50.765 2.04186 50.2902 2.33862 49.7888 2.58675C49.2099 2.85645 48.5775 2.99756 47.9368 2.9997Z" fill="#BDB0EC"/>
<path d="M75.605 2.9997C74.8132 3.00873 74.0331 2.81175 73.3442 2.42918C73.029 2.23979 72.7258 2.03212 72.4356 1.80755C72.3007 1.70537 72.1617 1.60319 72.0008 1.50529C71.6881 1.24937 71.2934 1.10894 70.8858 1.10894C70.478 1.10894 70.0835 1.24914 69.7705 1.50505C69.6315 1.60295 69.501 1.70513 69.3661 1.80731C69.1487 1.97341 68.9313 2.1395 68.6921 2.29277C67.9395 2.75256 67.0708 2.99658 66.1837 2.99658C65.2967 2.99658 64.4277 2.75278 63.6751 2.29301C63.4403 2.13974 63.2404 1.97792 63.0099 1.81182C62.8665 1.70109 62.7185 1.59036 62.5751 1.48391C62.2699 1.25152 61.8946 1.12534 61.5078 1.12534C61.1214 1.12534 60.7458 1.25152 60.4406 1.48391C60.2754 1.59464 60.1232 1.71392 59.9668 1.83297C59.8103 1.95226 59.532 2.16089 59.3015 2.31416C58.11 3.02345 56.6753 3.27813 55.3365 2.40396L55.5597 1.48391C56.6753 1.96688 57.808 1.91997 58.7231 1.37748C58.9318 1.24536 59.1188 1.09638 59.31 0.951667C59.5012 0.806957 59.6535 0.687674 59.836 0.564108C60.3307 0.204349 60.9309 0.00997542 61.5471 0.00997542C62.1631 0.00997542 62.7631 0.204349 63.2578 0.564108C63.423 0.679115 63.5838 0.80268 63.7403 0.921726C63.8968 1.04101 64.1229 1.21542 64.3316 1.34754C64.9014 1.68948 65.5568 1.87031 66.2249 1.87031C66.8933 1.87031 67.5485 1.68948 68.1184 1.34754C68.3314 1.21138 68.5228 1.06216 68.714 0.921726C68.9052 0.781292 69.001 0.700266 69.1488 0.593812C69.6539 0.208631 70.2759 0 70.9159 0C71.5562 0 72.178 0.208869 72.6834 0.594049C72.8355 0.700503 72.9791 0.811234 73.1181 0.917688C73.3733 1.11753 73.6405 1.30216 73.918 1.47111C74.8564 1.97367 75.9788 2.02572 76.9613 1.61154C77.3963 1.39365 77.8085 1.13392 78.1916 0.836679L78.522 0.598107C79.0303 0.214349 79.6541 0.00595444 80.296 0.00595444C80.9377 0.00595444 81.5614 0.214349 82.0697 0.598107L82.5045 0.908915C82.7437 1.09212 82.9739 1.26226 83.2219 1.4198C83.7411 1.73774 84.3498 1.88696 84.9609 1.84585L85 2.94008C84.1618 2.98475 83.3306 2.77184 82.6219 2.33128C82.3349 2.14808 82.0741 1.95227 81.8264 1.76503L81.4307 1.47133C81.1119 1.22611 80.7184 1.09256 80.3132 1.09256C79.9081 1.09256 79.5146 1.22587 79.196 1.4711L78.8743 1.70111C78.4333 2.04186 77.9585 2.33862 77.457 2.58675C76.8782 2.85645 76.2458 2.99756 75.605 2.9997Z" fill="#BDB0EC"/>
</svg>
