<svg width="41" height="40" viewBox="0 0 41 40" fill="none" xmlns="http://www.w3.org/2000/svg">
<path d="M38.4847 30.957C42.0379 27.8624 44.2168 23.6862 44.2168 19.091C44.2168 9.55151 34.8272 1.81824 23.2445 1.81824C11.6619 1.81824 2.27228 9.55151 2.27228 19.091C2.27228 28.6304 11.6619 36.3637 23.2445 36.3637C26.5304 36.3637 29.6399 35.7413 32.4085 34.6318C35.6608 36.5897 39.6455 37.9971 44.0461 37.7002C41.7212 37.1239 39.7215 34.7891 38.4847 30.957Z" fill="#728095"/>
<path d="M38.6242 19.0909C38.6242 26.12 31.7385 31.8182 23.2445 31.8182C14.7506 31.8182 7.86487 26.12 7.86487 19.0909C7.86487 12.0618 14.7506 6.36365 23.2445 6.36365C31.7385 6.36365 38.6242 12.0618 38.6242 19.0909Z" fill="#F6E05E"/>
<path d="M33.0316 19.0909C33.0316 23.6096 28.6498 27.2727 23.2445 27.2727C17.8393 27.2727 13.4575 23.6096 13.4575 19.0909C13.4575 14.5721 17.8393 10.9091 23.2445 10.9091C28.6498 10.9091 33.0316 14.5721 33.0316 19.0909Z" fill="#A1AEBF"/>
</svg>
