<svg width="199" height="72" viewBox="0 0 199 72" fill="none" xmlns="http://www.w3.org/2000/svg">
<rect x="1.09186" y="0.5" width="197.068" height="71" rx="9.5" stroke="#A1AEBF"/>
<g clip-path="url(#clip0_8_132)">
<path d="M83.9013 27.5288H80.7577V41.6212H89.4602V38.8598H83.9013V27.5288Z" fill="#0D0E14"/>
<path d="M89.7605 36.8411C89.7605 39.85 91.7924 41.8496 94.8593 41.8496C97.9071 41.8496 99.939 39.85 99.939 36.8411C99.939 33.8321 97.9071 31.8135 94.8593 31.8135C91.7924 31.8135 89.7605 33.8321 89.7605 36.8411ZM92.7316 36.822C92.7316 35.3938 93.575 34.4416 94.8593 34.4416C96.1244 34.4416 96.9679 35.3938 96.9679 36.822C96.9679 38.2694 96.1244 39.2216 94.8593 39.2216C93.575 39.2216 92.7316 38.2694 92.7316 36.822Z" fill="#0D0E14"/>
<path d="M100.414 36.6889C100.414 39.5645 102.292 41.5069 104.957 41.5069C106.241 41.5069 107.353 41.0499 107.909 40.3072V41.6212C107.909 42.9352 107.084 43.8112 105.628 43.8112C104.324 43.8112 103.423 43.2018 103.366 42.1164H100.375C100.644 44.7254 102.676 46.4773 105.455 46.4773C108.733 46.4773 110.803 44.3635 110.803 41.0118V32.0994H108.139L107.985 33.0705C107.449 32.2898 106.318 31.7756 105.014 31.7756C102.331 31.7756 100.414 33.7752 100.414 36.6889ZM103.404 36.6127C103.404 35.2415 104.324 34.3274 105.494 34.3274C106.854 34.3274 107.851 35.2225 107.851 36.6127C107.851 38.0029 106.874 38.9551 105.513 38.9551C104.343 38.9551 103.404 38.0029 103.404 36.6127Z" fill="#0D0E14"/>
<path d="M111.663 36.8411C111.663 39.85 113.695 41.8496 116.763 41.8496C119.81 41.8496 121.842 39.85 121.842 36.8411C121.842 33.8321 119.81 31.8135 116.763 31.8135C113.695 31.8135 111.663 33.8321 111.663 36.8411ZM114.634 36.822C114.634 35.3938 115.478 34.4416 116.763 34.4416C118.027 34.4416 118.871 35.3938 118.871 36.822C118.871 38.2694 118.027 39.2216 116.763 39.2216C115.478 39.2216 114.634 38.2694 114.634 36.822Z" fill="#0D0E14"/>
<path d="M124.387 30.6139C125.307 30.6139 126.055 29.8712 126.055 28.9381C126.055 28.0049 125.307 27.2812 124.387 27.2812C123.448 27.2812 122.7 28.0049 122.7 28.9381C122.7 29.8712 123.448 30.6139 124.387 30.6139ZM122.892 41.6212H125.863V32.0993H122.892V41.6212Z" fill="#0D0E14"/>
<path d="M127.593 46.1917H130.507V40.6691C131.062 41.3927 132.328 41.8879 133.65 41.8879C136.506 41.8879 138.231 39.7169 138.155 36.708C138.078 33.6419 136.295 31.7947 133.631 31.7947C132.27 31.7947 130.986 32.385 130.449 33.2611L130.295 32.0994H127.593V46.1917ZM130.564 36.8603C130.564 35.4321 131.522 34.4799 132.902 34.4799C134.301 34.4799 135.183 35.4511 135.183 36.8603C135.183 38.2696 134.301 39.2408 132.902 39.2408C131.522 39.2408 130.564 38.2886 130.564 36.8603Z" fill="#0D0E14"/>
<path d="M138.469 38.6123C138.545 40.5358 140.079 41.8688 142.494 41.8688C144.814 41.8688 146.424 40.65 146.424 38.6885C146.424 37.2793 145.581 36.3461 144.008 35.9652L142.303 35.5463C141.69 35.394 141.306 35.2416 141.306 34.7464C141.306 34.2513 141.708 33.9275 142.303 33.9275C142.974 33.9275 143.414 34.3656 143.396 35.013H146.06C145.983 33.0325 144.469 31.7947 142.36 31.7947C140.233 31.7947 138.642 33.0516 138.642 34.9559C138.642 36.2318 139.351 37.2793 141.248 37.7744L142.935 38.2124C143.433 38.3457 143.644 38.5742 143.644 38.8979C143.644 39.3741 143.203 39.6788 142.456 39.6788C141.593 39.6788 141.133 39.2789 141.133 38.6123H138.469Z" fill="#0D0E14"/>
<path d="M150.942 41.8687C152.112 41.8687 153.281 41.3355 153.875 40.5547L154.067 41.6212H156.846V32.0994H153.894V37.0508C153.894 38.479 153.473 39.2597 152.112 39.2597C151.057 39.2597 150.367 38.7837 150.367 37.0127V32.0994H147.415V38.079C147.415 40.3453 148.681 41.8687 150.942 41.8687Z" fill="#0D0E14"/>
<path d="M161.528 41.6212V36.4223C161.528 34.8226 162.39 34.3655 163.234 34.3655C164.173 34.3655 164.786 34.9369 164.786 36.1176V41.6212H167.7V36.4223C167.7 34.8036 168.543 34.3465 169.387 34.3465C170.326 34.3465 170.958 34.9178 170.958 36.1176V41.6212H173.834V35.3939C173.834 33.2229 172.684 31.7756 170.211 31.7756C168.831 31.7756 167.7 32.4421 167.201 33.4705C166.626 32.4421 165.63 31.7756 164.038 31.7756C162.984 31.7756 162.007 32.2517 161.432 33.0134L161.317 32.0994H158.556V41.6212H161.528Z" fill="#0D0E14"/>
<path d="M24.5919 36.0001C24.5919 28.2957 30.8784 22.05 38.6333 22.05H57.0627C64.8176 22.05 71.1042 28.2957 71.1042 36.0001V49.9501H38.6333C30.8784 49.9501 24.5919 43.7045 24.5919 36.0001Z" fill="#0D0E14"/>
<path d="M57.0627 27.2812H38.6333C33.7865 27.2812 29.8574 31.1848 29.8574 36C29.8574 40.8153 33.7865 44.7188 38.6333 44.7188H57.0627C61.9095 44.7188 65.8386 40.8153 65.8386 36C65.8386 31.1848 61.9095 27.2812 57.0627 27.2812Z" fill="#4B5567"/>
<path d="M38.6333 40.3594C41.0567 40.3594 43.0213 38.4076 43.0213 36C43.0213 33.5924 41.0567 31.6406 38.6333 31.6406C36.2099 31.6406 34.2454 33.5924 34.2454 36C34.2454 38.4076 36.2099 40.3594 38.6333 40.3594Z" fill="#0D0E14"/>
<path d="M36.8782 35.128C37.3629 35.128 37.7558 34.7377 37.7558 34.2562C37.7558 33.7746 37.3629 33.3843 36.8782 33.3843C36.3935 33.3843 36.0006 33.7746 36.0006 34.2562C36.0006 34.7377 36.3935 35.128 36.8782 35.128Z" fill="white"/>
<path d="M57.9403 40.3594C60.3637 40.3594 62.3283 38.4076 62.3283 36C62.3283 33.5924 60.3637 31.6406 57.9403 31.6406C55.5169 31.6406 53.5524 33.5924 53.5524 36C53.5524 38.4076 55.5169 40.3594 57.9403 40.3594Z" fill="#0D0E14"/>
<path d="M56.1851 35.128C56.6698 35.128 57.0627 34.7377 57.0627 34.2562C57.0627 33.7746 56.6698 33.3843 56.1851 33.3843C55.7005 33.3843 55.3076 33.7746 55.3076 34.2562C55.3076 34.7377 55.7005 35.128 56.1851 35.128Z" fill="white"/>
</g>
<defs>
<clipPath id="clip0_8_132">
<rect width="150.068" height="40" fill="white" transform="translate(24.5919 16)"/>
</clipPath>
</defs>
</svg>
