<svg width="181" height="27" viewBox="0 0 181 27" fill="none" xmlns="http://www.w3.org/2000/svg">
<g clip-path="url(#clip0_39_65)">
<path d="M19.3585 14.9888L20.0579 10.3835H15.6827V7.39618C15.6827 6.13592 16.2928 4.90678 18.2523 4.90678H20.2427V0.985979C20.2427 0.985979 18.4372 0.674805 16.7118 0.674805C13.1069 0.674805 10.753 2.88103 10.753 6.8734V10.3835H6.74757V14.9888H10.753V26.1227C11.5571 26.2502 12.3798 26.3156 13.2179 26.3156C14.0559 26.3156 14.8786 26.2502 15.6827 26.1227V14.9888H19.3585Z" fill="white"/>
</g>
<g clip-path="url(#clip1_39_65)">
<path d="M74.7969 8.07563C74.8073 8.31315 74.8073 8.53987 74.8073 8.77738C74.8177 15.9784 69.5271 24.2915 59.8519 24.2915C56.9983 24.2915 54.1967 23.4386 51.791 21.8407C52.2076 21.8947 52.6241 21.9163 53.0407 21.9163C55.4048 21.9163 57.7065 21.0958 59.5707 19.5735C57.3211 19.5304 55.3424 18.0081 54.655 15.7841C55.4465 15.946 56.2588 15.9136 57.0295 15.6869C54.5821 15.1903 52.822 12.9555 52.8116 10.3536C52.8116 10.332 52.8116 10.3104 52.8116 10.2888C53.5406 10.7099 54.3634 10.9474 55.1965 10.969C52.8949 9.37117 52.1763 6.18631 53.5719 3.6924C56.2484 7.10398 60.1852 9.16605 64.4135 9.39277C63.9865 7.50344 64.5697 5.51695 65.934 4.17822C68.0482 2.11616 71.3809 2.22412 73.3805 4.41574C74.5573 4.17822 75.6925 3.72478 76.7236 3.08781C76.3278 4.35096 75.5051 5.41978 74.4115 6.09994C75.453 5.97038 76.4736 5.67889 77.4318 5.24704C76.7236 6.34825 75.8279 7.29831 74.7969 8.07563Z" fill="white"/>
</g>
<g clip-path="url(#clip2_39_65)">
<path d="M115.728 2.43223C119.333 2.43223 119.756 2.44831 121.181 2.51259C122.499 2.57153 123.212 2.79118 123.689 2.97868C124.321 3.22512 124.771 3.51442 125.242 3.98586C125.714 4.45731 126.008 4.90733 126.249 5.53949C126.432 6.0163 126.657 6.72882 126.716 8.04673C126.78 9.47178 126.796 9.89501 126.796 13.5005C126.796 17.106 126.78 17.5292 126.716 18.9543C126.657 20.2722 126.437 20.9847 126.249 21.4615C126.003 22.0937 125.714 22.5437 125.242 23.0152C124.771 23.4866 124.321 23.7813 123.689 24.0223C123.212 24.2045 122.499 24.4295 121.181 24.4884C119.756 24.5527 119.333 24.5688 115.728 24.5688C112.122 24.5688 111.699 24.5527 110.274 24.4884C108.956 24.4295 108.243 24.2098 107.767 24.0223C107.134 23.7759 106.684 23.4866 106.213 23.0152C105.741 22.5437 105.447 22.0937 105.206 21.4615C105.024 20.9847 104.799 20.2722 104.74 18.9543C104.675 17.5292 104.659 17.106 104.659 13.5005C104.659 9.89501 104.675 9.47178 104.74 8.04673C104.799 6.72882 105.018 6.0163 105.206 5.53949C105.452 4.90733 105.741 4.45731 106.213 3.98586C106.684 3.51442 107.134 3.21976 107.767 2.97868C108.243 2.79653 108.956 2.57153 110.274 2.51259C111.699 2.44295 112.127 2.43223 115.728 2.43223ZM115.728 0C112.063 0 111.602 0.016072 110.161 0.0803602C108.726 0.144648 107.745 0.375014 106.888 0.707169C105.999 1.05004 105.249 1.51613 104.499 2.26616C103.749 3.01618 103.288 3.77157 102.94 4.65553C102.607 5.51271 102.377 6.4931 102.313 7.93423C102.248 9.37 102.232 9.83073 102.232 13.4951C102.232 17.1596 102.248 17.6203 102.313 19.0614C102.377 20.4972 102.607 21.4776 102.94 22.3401C103.282 23.2294 103.749 23.9795 104.499 24.7295C105.249 25.4795 106.004 25.9403 106.888 26.2885C107.745 26.6206 108.726 26.851 110.167 26.9153C111.608 26.9796 112.063 26.9957 115.733 26.9957C119.403 26.9957 119.858 26.9796 121.299 26.9153C122.735 26.851 123.715 26.6206 124.578 26.2885C125.467 25.9456 126.217 25.4795 126.967 24.7295C127.717 23.9795 128.178 23.2241 128.526 22.3401C128.858 21.483 129.089 20.5026 129.153 19.0614C129.217 17.6203 129.233 17.1649 129.233 13.4951C129.233 9.82537 129.217 9.37 129.153 7.92887C129.089 6.4931 128.858 5.51271 128.526 4.65018C128.183 3.76086 127.717 3.01083 126.967 2.2608C126.217 1.51077 125.462 1.05004 124.578 0.701812C123.721 0.369657 122.74 0.139291 121.299 0.0750028C119.853 0.016072 119.392 0 115.728 0Z" fill="white"/>
<path d="M115.728 2.43223C119.333 2.43223 119.756 2.44831 121.181 2.51259C122.499 2.57153 123.212 2.79118 123.689 2.97868C124.321 3.22512 124.771 3.51442 125.242 3.98586C125.714 4.45731 126.008 4.90733 126.249 5.53949C126.432 6.0163 126.657 6.72882 126.716 8.04673C126.78 9.47178 126.796 9.89501 126.796 13.5005C126.796 17.106 126.78 17.5292 126.716 18.9543C126.657 20.2722 126.437 20.9847 126.249 21.4615C126.003 22.0937 125.714 22.5437 125.242 23.0152C124.771 23.4866 124.321 23.7813 123.689 24.0223C123.212 24.2045 122.499 24.4295 121.181 24.4884C119.756 24.5527 119.333 24.5688 115.728 24.5688C112.122 24.5688 111.699 24.5527 110.274 24.4884C108.956 24.4295 108.243 24.2098 107.767 24.0223C107.134 23.7759 106.684 23.4866 106.213 23.0152C105.741 22.5437 105.447 22.0937 105.206 21.4615C105.024 20.9847 104.799 20.2722 104.74 18.9543C104.675 17.5292 104.659 17.106 104.659 13.5005C104.659 9.89501 104.675 9.47178 104.74 8.04673C104.799 6.72882 105.018 6.0163 105.206 5.53949C105.452 4.90733 105.741 4.45731 106.213 3.98586C106.684 3.51442 107.134 3.21976 107.767 2.97868C108.243 2.79653 108.956 2.57153 110.274 2.51259C111.699 2.44295 112.127 2.43223 115.728 2.43223Z" fill="white"/>
<path d="M115.728 6.56836C111.902 6.56836 108.795 9.67026 108.795 13.5008C108.795 17.3313 111.897 20.4332 115.728 20.4332C119.558 20.4332 122.66 17.3313 122.66 13.5008C122.66 9.67026 119.558 6.56836 115.728 6.56836ZM115.728 17.9956C113.242 17.9956 111.227 15.9812 111.227 13.4954C111.227 11.0096 113.242 8.99524 115.728 8.99524C118.213 8.99524 120.228 11.0096 120.228 13.4954C120.228 15.9812 118.213 17.9956 115.728 17.9956Z" fill="#0C0B0B"/>
<path d="M122.933 7.90722C123.827 7.90722 124.551 7.18286 124.551 6.2893C124.551 5.39575 123.827 4.67139 122.933 4.67139C122.04 4.67139 121.315 5.39575 121.315 6.2893C121.315 7.18286 122.04 7.90722 122.933 7.90722Z" fill="#0C0B0B"/>
</g>
<g clip-path="url(#clip3_39_65)">
<path d="M178.346 0H155.34C154.812 0 154.305 0.209914 153.931 0.583564C153.558 0.957213 153.348 1.46399 153.348 1.99241V24.9979C153.348 25.5263 153.558 26.0331 153.931 26.4067C154.305 26.7804 154.812 26.9903 155.34 26.9903H178.346C178.874 26.9903 179.381 26.7804 179.754 26.4067C180.128 26.0331 180.338 25.5263 180.338 24.9979V1.99241C180.338 1.46399 180.128 0.957213 179.754 0.583564C179.381 0.209914 178.874 0 178.346 0ZM161.392 22.9924H157.334V10.1026H161.392V22.9924ZM159.36 8.31639C158.9 8.3138 158.451 8.17491 158.07 7.91725C157.688 7.6596 157.392 7.29473 157.217 6.86868C157.043 6.44264 156.999 5.97452 157.09 5.5234C157.182 5.07228 157.405 4.65839 157.732 4.33395C158.058 4.00951 158.473 3.78906 158.925 3.70044C159.377 3.61181 159.845 3.65898 160.269 3.83598C160.694 4.01298 161.057 4.31189 161.313 4.69498C161.568 5.07807 161.704 5.52817 161.703 5.98847C161.708 6.29665 161.65 6.60255 161.534 6.88793C161.417 7.17331 161.245 7.43234 161.026 7.64958C160.807 7.86681 160.547 8.03781 160.261 8.15237C159.975 8.26693 159.669 8.32271 159.36 8.31639ZM176.349 23.0036H172.293V15.9618C172.293 13.885 171.411 13.244 170.271 13.244C169.068 13.244 167.887 14.1512 167.887 16.0142V23.0036H163.829V10.112H167.731V11.8982H167.784C168.175 11.1054 169.547 9.75025 171.641 9.75025C173.905 9.75025 176.351 11.0941 176.351 15.0302L176.349 23.0036Z" fill="white"/>
</g>
<defs>
<clipPath id="clip0_39_65">
<rect width="26.9903" height="26.9903" fill="white"/>
</clipPath>
<clipPath id="clip1_39_65">
<rect x="51.1162" width="26.9903" height="26.9903" fill="white"/>
</clipPath>
<clipPath id="clip2_39_65">
<rect x="102.232" width="26.9903" height="26.9903" fill="white"/>
</clipPath>
<clipPath id="clip3_39_65">
<rect x="153.348" width="26.9903" height="26.9903" fill="white"/>
</clipPath>
</defs>
</svg>
