<svg width="20" height="20" viewBox="0 0 20 20" fill="none" xmlns="http://www.w3.org/2000/svg">
<path d="M5.83334 9.16666H12.1583L9.40834 6.42499C9.25142 6.26807 9.16326 6.05524 9.16326 5.83333C9.16326 5.61141 9.25142 5.39858 9.40834 5.24166C9.56526 5.08474 9.77809 4.99658 10 4.99658C10.2219 4.99658 10.4348 5.08474 10.5917 5.24166L14.7583 9.40833C14.8342 9.48758 14.8937 9.58103 14.9333 9.68333C15.0167 9.88621 15.0167 10.1138 14.9333 10.3167C14.8937 10.419 14.8342 10.5124 14.7583 10.5917L10.5917 14.7583C10.5142 14.8364 10.422 14.8984 10.3205 14.9407C10.2189 14.983 10.11 15.0048 10 15.0048C9.88999 15.0048 9.78107 14.983 9.67952 14.9407C9.57797 14.8984 9.48581 14.8364 9.40834 14.7583C9.33023 14.6809 9.26824 14.5887 9.22593 14.4871C9.18362 14.3856 9.16184 14.2767 9.16184 14.1667C9.16184 14.0566 9.18362 13.9477 9.22593 13.8462C9.26824 13.7446 9.33023 13.6525 9.40834 13.575L12.1583 10.8333H5.83334C5.61232 10.8333 5.40036 10.7455 5.24408 10.5892C5.0878 10.433 5 10.221 5 9.99999C5 9.77898 5.0878 9.56702 5.24408 9.41074C5.40036 9.25446 5.61232 9.16666 5.83334 9.16666Z" fill="#8447E9"/>
</svg>
