<svg width="27" height="23" viewBox="0 0 27 23" fill="none" xmlns="http://www.w3.org/2000/svg">
<path d="M23.7969 6.07563C23.8073 6.31315 23.8073 6.53987 23.8073 6.77738C23.8177 13.9784 18.5271 22.2915 8.85188 22.2915C5.99828 22.2915 3.19675 21.4386 0.79097 19.8407C1.20755 19.8947 1.62414 19.9163 2.04072 19.9163C4.40484 19.9163 6.70647 19.0958 8.57069 17.5735C6.32113 17.5304 4.34235 16.0081 3.65499 13.7841C4.4465 13.946 5.25884 13.9136 6.02952 13.6869C3.58209 13.1903 1.82202 10.9555 1.8116 8.35362C1.8116 8.33203 1.8116 8.31044 1.8116 8.28885C2.54063 8.7099 3.36338 8.94741 4.19655 8.969C1.89492 7.37117 1.17631 4.18631 2.57187 1.6924C5.24843 5.10398 9.18515 7.16605 13.4135 7.39277C12.9865 5.50344 13.5697 3.51695 14.934 2.17822C17.0482 0.116157 20.3809 0.224119 22.3805 2.41574C23.5573 2.17822 24.6925 1.72478 25.7236 1.08781C25.3278 2.35096 24.5051 3.41978 23.4115 4.09994C24.453 3.97038 25.4736 3.67889 26.4318 3.24704C25.7236 4.34825 24.8279 5.29831 23.7969 6.07563Z" fill="white"/>
</svg>
